<svg xmlns="http://www.w3.org/2000/svg" viewBox="0 0 42 48"><defs><style>.cls-1{fill:#201602;}</style></defs><title>Asset 4ldpi</title><g id="Layer_2" data-name="Layer 2"><g id="layer_1-2" data-name="layer 1"><path class="cls-1" d="M21,44a1,1,0,0,1-.71-.3l-12-12.3a18.72,18.72,0,0,1,0-26,17.73,17.73,0,0,1,25.48,0h0a18.72,18.72,0,0,1,0,26l-12,12.3A1,1,0,0,1,21,44ZM21,2A15.73,15.73,0,0,0,9.69,6.79,16.71,16.71,0,0,0,9.69,30L21,41.57,32.31,30a16.71,16.71,0,0,0,0-23.21h0A15.73,15.73,0,0,0,21,2Z"/><path class="cls-1" d="M21,27a9,9,0,1,1,9-9A9,9,0,0,1,21,27Zm0-16a7,7,0,1,0,7,7A7,7,0,0,0,21,11Z"/><path class="cls-1" d="M21,48c-.86,0-21-.06-21-5,0-4,13.11-4.77,17.12-4.93l.08,2c-10,.39-14.87,2.13-15.21,3,.44,1,7.17,3,19,3s18.57-2,19-3c-.34-.75-5.16-2.49-15.21-2.88l.08-2c4,.16,17.12,1,17.12,4.93C42,47.94,21.86,48,21,48Z"/></g></g></svg>